<svg width="128" height="128" viewBox="0 0 128 128" fill="none" xmlns="http://www.w3.org/2000/svg">
  <circle cx="64" cy="64" r="60" fill="#2563EB"/>
  <g transform="translate(32, 32)">
    <!-- Wrench -->
    <path d="M8 52L20 40L24 44L32 36L28 32L40 20L44 24L52 16L56 20L48 28L52 32L44 40L40 36L32 44L36 48L28 56L24 52L16 60L12 56L20 48L16 44L8 52Z" fill="white"/>
    <!-- Hammer handle -->
    <rect x="48" y="32" width="8" height="32" rx="4" fill="white"/>
    <!-- Hammer head -->
    <rect x="44" y="28" width="16" height="8" rx="2" fill="white"/>
  </g>
  <circle cx="64" cy="64" r="54" stroke="white" stroke-width="2" fill="none" opacity="0.3"/>
</svg>