<svg width="128" height="128" viewBox="0 0 128 128" fill="none" xmlns="http://www.w3.org/2000/svg">
  <circle cx="64" cy="64" r="60" fill="#F59E0B"/>
  <g transform="translate(24, 32)">
    <!-- Car body -->
    <path d="M8 32C8 28.6863 10.6863 26 14 26H66C69.3137 26 72 28.6863 72 32V48C72 51.3137 69.3137 54 66 54H14C10.6863 54 8 51.3137 8 48V32Z" fill="white"/>
    <!-- Car roof -->
    <path d="M20 26C20 22.6863 22.6863 20 26 20H54C57.3137 20 60 22.6863 60 26V32H20V26Z" fill="white" opacity="0.8"/>
    <!-- Wheels -->
    <circle cx="22" cy="54" r="8" fill="white"/>
    <circle cx="58" cy="54" r="8" fill="white"/>
    <circle cx="22" cy="54" r="4" fill="#F59E0B"/>
    <circle cx="58" cy="54" r="4" fill="#F59E0B"/>
    <!-- Tool/wrench overlay -->
    <path d="M32 40L36 36L38 38L42 34L40 32L44 28L46 30L50 26L52 28L48 32L50 34L46 38L44 36L40 40L42 42L38 46L36 44L32 48L30 46L34 42L32 40Z" fill="#F59E0B" opacity="0.7"/>
  </g>
  <circle cx="64" cy="64" r="54" stroke="white" stroke-width="2" fill="none" opacity="0.3"/>
</svg>